# xmcd
#
# Track frame offsets:
#	150
#	13637
#	32369
#	47188
#	74904
#	90763
#	108318
#	119305
#	133427
#	146559
#	164046
#	182214
#	207465
#	227885
#	244877
#	261053
#	274452
#	286621
#	301207
#	316562
#
# Disc length: 4441 seconds
# Revision: 0
# Processed by: cddbd v1.5.2PL0 Copyright (c) Steve Scherf et al.
# Submitted via: dBpowerAMP V12.0
#
DISCID=28115714
DTITLE=Giannis Parios  - Gia Panta Mazi
DYEAR=2009
DGENRE=
TTITLE0=Se Hriazome
TTITLE1=Na mouna Theos (Alma Corazon Y Vida)
TTITLE2=Gia Panta Mazi
TTITLE3=Ena Gramma
TTITLE4=Thalassa
TTITLE5=Dari dari
TTITLE6=Pios Moro Mou Pios
TTITLE7=An Den Iha Ke Sena
TTITLE8=To Tragoudi tou Hari (w/ X. Varthakouris)
TTITLE9=S'Agapo
TTITLE10=Kokkino Garifallo (w/ Xaris Alexiou)
TTITLE11=Matia Ble
TTITLE12=Ine Arrosta Ta Tragoudia
TTITLE13=Fotia Sta Sinora Tis Gis
TTITLE14=Pote Pote Pote (w/ Eleni Dimou)
TTITLE15=Na to Paris to Koritsi
TTITLE16=Ela mou Kopela mou
TTITLE17=Apopse Se Kapio nisi
TTITLE18=San Trelo Fortigo
TTITLE19=Apopse
EXTD=
EXTT0=
EXTT1=
EXTT2=
EXTT3=
EXTT4=
EXTT5=
EXTT6=
EXTT7=
EXTT8=
EXTT9=
EXTT10=
EXTT11=
EXTT12=
EXTT13=
EXTT14=
EXTT15=
EXTT16=
EXTT17=
EXTT18=
EXTT19=
PLAYORDER=
